:FULLY-SPECIFIED
:FORCE-ALL-JOINTS-BE-3DOF
:DEGREES
34
root 5.9884 16.8879 -28.0939 9.93588 -1.78995 -2.20895
lfemur -20.3355 1.54002 -19.8417
ltibia 34.224 0 0
lfoot -35.9513 4.23044 0
ltoes 35.9187 0 0
rfemur -17.3943 5.26322 19.4841
rtibia 31.4971 0 0
rfoot -27.7192 -17.2083 0
rtoes 13.2281 0 0
lowerback -5.03354 2.57911 -1.15985
upperback -1.92071 3.46591 0.814691
thorax 0.675459 1.76484 1.65961
lowerneck -9.56534 -1.6875 2.75923
upperneck -2.66114 -2.5155 0.644131
head 0.734792 -1.26739 -0.347926
lclavicle 1.86406e-14 1.7454e-15 0
lhumerus -41.4668 -12.6459 97.1151
lradius 39.1422 0 0
lwrist 5.76405 0 0
lhand -11.6632 4.67602 0
lfingers 7.12502 0 0
lthumb 14.3815 34.1571 0
rclavicle 1.86406e-14 1.7454e-15 0
rhumerus -40.7979 -5.02593 -88.656
rradius 39.2024 0 0
rwrist 10.7794 0 0
rhand -26.155 -20.7153 0
rfingers 7.12502 0 0
rthumb 0.395978 -50.6918 0
35
root 5.98068 16.8895 -28.0925 9.96358 -1.76753 -2.18323
lfemur -20.3344 1.51691 -19.837
ltibia 34.1724 0 0
lfoot -35.8694 4.23933 0
ltoes 35.8268 0 0
rfemur -17.3312 5.41604 19.4828
rtibia 31.3596 0 0
rfoot -27.6387 -17.4117 0
rtoes 12.979 0 0
lowerback -5.1239 2.54606 -1.04234
upperback -1.89808 3.41932 0.733537
thorax 0.767563 1.7374 1.51522
lowerneck -9.5568 -1.66686 2.7838
upperneck -2.69998 -2.49096 0.713766
head 0.721776 -1.25434 -0.328903
lclavicle 1.9707e-14 2.91871e-15 0
lhumerus -41.4589 -12.7015 97.0328
lradius 39.2826 0 0
lwrist 5.8728 0 0
lhand -11.6956 4.5251 0
lfingers 7.12502 0 0
lthumb 14.3503 34.0084 0
rclavicle 1.9707e-14 2.91871e-15 0
rhumerus -40.7229 -5.03089 -88.7889
rradius 39.1638 0 0
rwrist 10.8062 0 0
rhand -26.2265 -20.662 0
rfingers 7.12502 0 0
rthumb 0.326949 -50.6388 0
36
root 5.97296 16.8911 -28.0912 9.99129 -1.74511 -2.15751
lfemur -20.3333 1.49381 -19.8324
ltibia 34.1208 0 0
lfoot -35.7875 4.24821 0
ltoes 35.7348 0 0
rfemur -17.2682 5.56886 19.4816
rtibia 31.2221 0 0
rfoot -27.5581 -17.6151 0
rtoes 12.7299 0 0
lowerback -5.21427 2.51301 -0.924828
upperback -1.87546 3.37272 0.652382
thorax 0.859667 1.70997 1.37083
lowerneck -9.54827 -1.64621 2.80838
upperneck -2.73882 -2.46642 0.783401
head 0.70876 -1.24128 -0.309881
lclavicle 2.07733e-14 4.09203e-15 0
lhumerus -41.4511 -12.757 96.9504
lradius 39.423 0 0
lwrist 5.98155 0 0
lhand -11.728 4.37418 0
lfingers 7.12502 0 0
lthumb 14.3191 33.8598 0
rclavicle 2.07733e-14 4.09203e-15 0
rhumerus -40.6479 -5.03585 -88.9218
rradius 39.1252 0 0
rwrist 10.833 0 0
rhand -26.298 -20.6086 0
rfingers 7.12502 0 0
rthumb 0.25792 -50.5859 0
37
root 5.96524 16.8926 -28.0899 10.019 -1.72269 -2.13178
lfemur -20.3322 1.4707 -19.8277
ltibia 34.0692 0 0
lfoot -35.7056 4.2571 0
ltoes 35.6428 0 0
rfemur -17.2051 5.72167 19.4803
rtibia 31.0846 0 0
rfoot -27.4775 -17.8185 0
rtoes 12.4808 0 0
lowerback -5.30464 2.47996 -0.807318
upperback -1.85284 3.32613 0.571228
thorax 0.95177 1.68253 1.22645
lowerneck -9.53973 -1.62557 2.83296
upperneck -2.77767 -2.44187 0.853036
head 0.695743 -1.22823 -0.290859
lclavicle 2.18397e-14 5.26534e-15 0
lhumerus -41.4433 -12.8126 96.8681
lradius 39.5634 0 0
lwrist 6.09031 0 0
lhand -11.7603 4.22326 0
lfingers 7.12502 0 0
lthumb 14.2879 33.7112 0
rclavicle 2.18397e-14 5.26534e-15 0
rhumerus -40.5729 -5.04081 -89.0547
rradius 39.0866 0 0
rwrist 10.8598 0 0
rhand -26.3694 -20.5553 0
rfingers 7.12502 0 0
rthumb 0.188891 -50.5329 0
38
root 5.95752 16.8942 -28.0885 10.0467 -1.70027 -2.10606
lfemur -20.3311 1.44759 -19.823
ltibia 34.0176 0 0
lfoot -35.6237 4.26599 0
ltoes 35.5508 0 0
rfemur -17.1421 5.87449 19.479
rtibia 30.9472 0 0
rfoot -27.397 -18.0219 0
rtoes 12.2317 0 0
lowerback -5.395 2.44691 -0.689809
upperback -1.83021 3.27953 0.490073
thorax 1.04387 1.65509 1.08206
lowerneck -9.5312 -1.60493 2.85754
upperneck -2.81651 -2.41733 0.92267
head 0.682727 -1.21517 -0.271836
lclavicle 2.2906e-14 6.43865e-15 0
lhumerus -41.4354 -12.8681 96.7858
lradius 39.7037 0 0
lwrist 6.19906 0 0
lhand -11.7927 4.07234 0
lfingers 7.12502 0 0
lthumb 14.2568 33.5625 0
rclavicle 2.2906e-14 6.43865e-15 0
rhumerus -40.4979 -5.04577 -89.1876
rradius 39.048 0 0
rwrist 10.8867 0 0
rhand -26.4409 -20.5019 0
rfingers 7.12502 0 0
rthumb 0.119862 -50.48 0
39
root 5.9498 16.8958 -28.0872 10.0744 -1.67785 -2.08034
lfemur -20.33 1.42448 -19.8184
ltibia 33.966 0 0
lfoot -35.5418 4.27488 0
ltoes 35.4588 0 0
rfemur -17.079 6.02731 19.4778
rtibia 30.8097 0 0
rfoot -27.3164 -18.2253 0
rtoes 11.9826 0 0
lowerback -5.48537 2.41387 -0.572299
upperback -1.80759 3.23294 0.408919
thorax 1.13598 1.62766 0.937671
lowerneck -9.52266 -1.58429 2.88212
upperneck -2.85535 -2.39279 0.992305
head 0.669711 -1.20212 -0.252814
lclavicle 2.39724e-14 7.61196e-15 0
lhumerus -41.4276 -12.9237 96.7035
lradius 39.8441 0 0
lwrist 6.30781 0 0
lhand -11.8251 3.92142 0
lfingers 7.12502 0 0
lthumb 14.2256 33.4139 0
rclavicle 2.39724e-14 7.61196e-15 0
rhumerus -40.4229 -5.05073 -89.3205
rradius 39.0094 0 0
rwrist 10.9135 0 0
rhand -26.5124 -20.4486 0
rfingers 7.12502 0 0
rthumb 0.0508336 -50.427 0
40
root 5.94208 16.8974 -28.0859 10.1021 -1.65543 -2.05462
lfemur -20.329 1.40138 -19.8137
ltibia 33.9144 0 0
lfoot -35.4599 4.28376 0
ltoes 35.3669 0 0
rfemur -17.016 6.18013 19.4765
rtibia 30.6722 0 0
rfoot -27.2358 -18.4286 0
rtoes 11.7335 0 0
lowerback -5.57574 2.38082 -0.45479
upperback -1.78497 3.18634 0.327764
thorax 1.22808 1.60022 0.793283
lowerneck -9.51413 -1.56365 2.90669
upperneck -2.89419 -2.36825 1.06194
head 0.656695 -1.18906 -0.233792
lclavicle 2.50387e-14 8.78528e-15 0
lhumerus -41.4198 -12.9792 96.6212
lradius 39.9845 0 0
lwrist 6.41656 0 0
lhand -11.8575 3.7705 0
lfingers 7.12502 0 0
lthumb 14.1944 33.2653 0
rclavicle 2.50387e-14 8.78528e-15 0
rhumerus -40.3479 -5.05569 -89.4534
rradius 38.9708 0 0
rwrist 10.9403 0 0
rhand -26.5839 -20.3952 0
rfingers 7.12502 0 0
rthumb -0.0181953 -50.3741 0
41
root 5.93436 16.8989 -28.0845 10.1298 -1.63301 -2.0289
lfemur -20.3279 1.37827 -19.8091
ltibia 33.8628 0 0
lfoot -35.378 4.29265 0
ltoes 35.2749 0 0
rfemur -16.9529 6.33295 19.4753
rtibia 30.5347 0 0
rfoot -27.1553 -18.632 0
rtoes 11.4844 0 0
lowerback -5.6661 2.34777 -0.33728
upperback -1.76234 3.13975 0.24661
thorax 1.32019 1.57279 0.648895
lowerneck -9.50559 -1.54301 2.93127
upperneck -2.93304 -2.3437 1.13158
head 0.643678 -1.17601 -0.214769
lclavicle 2.61051e-14 9.95859e-15 0
lhumerus -41.4119 -13.0348 96.5389
lradius 40.1249 0 0
lwrist 6.52532 0 0
lhand -11.8898 3.61958 0
lfingers 7.12502 0 0
lthumb 14.1632 33.1166 0
rclavicle 2.61051e-14 9.95859e-15 0
rhumerus -40.2729 -5.06065 -89.5863
rradius 38.9322 0 0
rwrist 10.9671 0 0
rhand -26.6553 -20.3419 0
rfingers 7.12502 0 0
rthumb -0.0872241 -50.3211 0
42
root 5.92664 16.9005 -28.0832 10.1575 -1.61059 -2.00318
lfemur -20.3268 1.35516 -19.8044
ltibia 33.8112 0 0
lfoot -35.2961 4.30154 0
ltoes 35.1829 0 0
rfemur -16.8899 6.48577 19.474
rtibia 30.3972 0 0
rfoot -27.0747 -18.8354 0
rtoes 11.2353 0 0
lowerback -5.75647 2.31472 -0.219771
upperback -1.73972 3.09315 0.165455
thorax 1.41229 1.54535 0.504507
lowerneck -9.49706 -1.52237 2.95585
upperneck -2.97188 -2.31916 1.20121
head 0.630662 -1.16295 -0.195747
lclavicle 2.71714e-14 1.11319e-14 0
lhumerus -41.4041 -13.0903 96.4566
lradius 40.2653 0 0
lwrist 6.63407 0 0
lhand -11.9222 3.46866 0
lfingers 7.12502 0 0
lthumb 14.132 32.968 0
rclavicle 2.71714e-14 1.11319e-14 0
rhumerus -40.1979 -5.06561 -89.7192
rradius 38.8936 0 0
rwrist 10.9939 0 0
rhand -26.7268 -20.2885 0
rfingers 7.12502 0 0
rthumb -0.156253 -50.2682 0
43
root 5.9353 16.896 -28.0705 10.1695 -1.47312 -2.09822
lfemur -20.7611 1.59733 -19.6023
ltibia 34.1285 0 0
lfoot -34.9005 4.30104 0
ltoes 34.8211 0 0
rfemur -16.7948 6.26323 19.5598
rtibia 30.3185 0 0
rfoot -27.0967 -18.8001 0
rtoes 10.7298 0 0
lowerback -5.69314 2.34775 -0.135421
upperback -1.74328 3.13501 0.173028
thorax 1.37917 1.56588 0.463944
lowerneck -9.52038 -1.57063 2.96331
upperneck -3.02764 -2.38322 1.20824
head 0.616304 -1.19557 -0.196409
lclavicle 2.62881e-14 1.11513e-14 0
lhumerus -41.4369 -12.9788 96.3388
lradius 40.3738 0 0
lwrist 6.69758 0 0
lhand -11.9017 3.44081 0
lfingers 7.12502 0 0
lthumb 14.1517 32.9387 0
rclavicle 2.62881e-14 1.11513e-14 0
rhumerus -40.1284 -4.86013 -89.7136
rradius 39.0182 0 0
rwrist 10.9048 0 0
rhand -26.6496 -20.3111 0
rfingers 7.12502 0 0
rthumb -0.0817356 -50.2903 0
44
root 5.94396 16.8914 -28.0578 10.1814 -1.33565 -2.19326
lfemur -21.1954 1.8395 -19.4002
ltibia 34.4459 0 0
lfoot -34.5049 4.30054 0
ltoes 34.4592 0 0
rfemur -16.6997 6.04068 19.6456
rtibia 30.2399 0 0
rfoot -27.1187 -18.7647 0
rtoes 10.2243 0 0
lowerback -5.62981 2.38078 -0.0510705
upperback -1.74684 3.17686 0.180601
thorax 1.34605 1.58642 0.423381
lowerneck -9.54369 -1.6189 2.97077
upperneck -3.08341 -2.44728 1.21527
head 0.601946 -1.22819 -0.197071
lclavicle 2.54048e-14 1.11707e-14 0
lhumerus -41.4698 -12.8672 96.221
lradius 40.4823 0 0
lwrist 6.76109 0 0
lhand -11.8812 3.41295 0
lfingers 7.12502 0 0
lthumb 14.1715 32.9094 0
rclavicle 2.54048e-14 1.11707e-14 0
rhumerus -40.0589 -4.65466 -89.7081
rradius 39.1429 0 0
rwrist 10.8157 0 0
rhand -26.5725 -20.3337 0
rfingers 7.12502 0 0
rthumb -0.00721822 -50.3125 0
45
root 5.95262 16.8869 -28.0451 10.1934 -1.19817 -2.2883
lfemur -21.6297 2.08168 -19.1981
ltibia 34.7632 0 0
lfoot -34.1093 4.30004 0
ltoes 34.0974 0 0
rfemur -16.6046 5.81814 19.7314
rtibia 30.1612 0 0
rfoot -27.1407 -18.7294 0
rtoes 9.71877 0 0
lowerback -5.56649 2.41381 0.0332798
upperback -1.75041 3.21872 0.188174
thorax 1.31292 1.60695 0.382818
lowerneck -9.56701 -1.66716 2.97823
upperneck -3.13917 -2.51133 1.22229
head 0.587588 -1.26081 -0.197733
lclavicle 2.45214e-14 1.11901e-14 0
lhumerus -41.5026 -12.7557 96.1033
lradius 40.5908 0 0
lwrist 6.8246 0 0
lhand -11.8608 3.3851 0
lfingers 7.12502 0 0
lthumb 14.1912 32.8802 0
rclavicle 2.45214e-14 1.11901e-14 0
rhumerus -39.9894 -4.44918 -89.7025
rradius 39.2675 0 0
rwrist 10.7266 0 0
rhand -26.4953 -20.3563 0
rfingers 7.12502 0 0
rthumb 0.0672992 -50.3346 0
46
root 5.96129 16.8824 -28.0323 10.2053 -1.0607 -2.38334
lfemur -22.064 2.32385 -18.996
ltibia 35.0806 0 0
lfoot -33.7137 4.29954 0
ltoes 33.7355 0 0
rfemur -16.5096 5.59559 19.8172
rtibia 30.0825 0 0
rfoot -27.1627 -18.6941 0
rtoes 9.21326 0 0
lowerback -5.50316 2.44684 0.11763
upperback -1.75397 3.26058 0.195748
thorax 1.2798 1.62749 0.342255
lowerneck -9.59032 -1.71543 2.98569
upperneck -3.19494 -2.57539 1.22932
head 0.57323 -1.29343 -0.198394
lclavicle 2.36381e-14 1.12095e-14 0
lhumerus -41.5354 -12.6441 95.9855
lradius 40.6992 0 0
lwrist 6.88811 0 0
lhand -11.8403 3.35724 0
lfingers 7.12502 0 0
lthumb 14.2109 32.8509 0
rclavicle 2.36381e-14 1.12095e-14 0
rhumerus -39.9199 -4.24371 -89.6969
rradius 39.3921 0 0
rwrist 10.6375 0 0
rhand -26.4182 -20.379 0
rfingers 7.12502 0 0
rthumb 0.141817 -50.3567 0
